<svg xmlns="http://www.w3.org/2000/svg" viewBox="0 0 32 32" width="200" height="200">
  <defs>
    <linearGradient id="bg" x1="0%" y1="0%" x2="100%" y2="100%">
      <stop offset="0%" style="stop-color:#E1D4EF"/>
      <stop offset="100%" style="stop-color:#E1D3EF"/>
    </linearGradient>
    <linearGradient id="header" x1="0%" y1="0%" x2="100%" y2="0%">
      <stop offset="0%" style="stop-color:#377AF3"/>
      <stop offset="100%" style="stop-color:#2EA6FF"/>
    </linearGradient>
  </defs>
  
  <rect width="27.953" height="27.953" x="2.047" y="2.023" fill="url(#bg)" rx="5.25"/>
  
  <path fill="url(#header)" d="M30 9.023H2.047v-1.75c0-2.9 2.35-5.25 5.25-5.25H24.75c2.9 0 5.25 2.35 5.25 5.25z"/>
  
  <rect width="3.086" height="3.125" x="7.797" y="11.953" fill="#A59CB4" rx=".1"/>
  <rect width="3.086" height="3.125" x="14.481" y="11.953" fill="#A59CB4" rx=".1"/>
  <rect width="3.086" height="3.125" x="21.164" y="11.953" fill="#A59CB4" rx=".1"/>
  
  <rect width="3.086" height="3.125" x="7.797" y="17.406" fill="#A59CB4" rx=".1"/>
  <rect width="3.086" height="3.125" x="14.481" y="17.406" fill="#A59CB4" rx=".1"/>
  <rect width="3.086" height="3.125" x="21.164" y="17.406" fill="#2F99F4" rx=".1"/>
  
  <rect width="3.086" height="3.125" x="7.797" y="22.859" fill="#A59CB4" rx=".1"/>
  <rect width="3.086" height="3.125" x="14.481" y="22.859" fill="#A59CB4" rx=".1"/>
  <rect width="3.086" height="3.125" x="21.164" y="22.859" fill="#A59CB4" rx=".1"/>
</svg>